<svg version="1.1" id="Layer_1" xmlns="http://www.w3.org/2000/svg" x="0" y="0" viewBox="0 0 801.7 509.5" style="enable-background:new 0 0 801.7 509.5" xml:space="preserve">
    <style>.st1{fill:#6d6e71}</style>
    <path style="fill:#fff;stroke:#000;stroke-width:3;stroke-miterlimit:10" d="M20.6 327.4h751.9v143.4H20.6z"/>
    <path d="M53.2 387.2v32.5h3.9c2.6 0 4.5.5 5.6 1.5s1.7 2.3 1.7 4c0 1.6-.6 2.9-1.7 3.9s-3 1.5-5.6 1.5H42.9c-2.6 0-4.5-.5-5.6-1.5s-1.7-2.3-1.7-4c0-1.6.5-2.9 1.6-3.9s2.8-1.5 5.1-1.5v-42.6c-1.9-.2-3.4-.8-4.3-1.8-1-1-1.5-2.2-1.5-3.7 0-1.6.6-3 1.7-4s3-1.5 5.6-1.5l12 .1L70.6 399l14.6-32.8 12.1.1c2.6 0 4.5.5 5.6 1.5 1.1 1 1.7 2.3 1.7 3.9 0 1.5-.5 2.7-1.5 3.7s-2.4 1.6-4.3 1.8v42.6c2.3 0 4 .5 5.1 1.5 1.1 1 1.6 2.3 1.6 3.9s-.6 2.9-1.7 3.9-3 1.5-5.6 1.5H83.9c-2.6 0-4.4-.5-5.6-1.5s-1.7-2.3-1.7-4c0-1.6.6-2.9 1.7-3.9s3-1.5 5.6-1.5h4v-32.5l-12.5 28.1h-9.5l-12.7-28.1zM145.4 430.6V428c-2.7 1.5-5.7 2.5-9 3.3-3.3.7-6.3 1.1-9 1.1-5.8 0-10.6-1.6-14.2-4.7s-5.5-6.5-5.5-10.3c0-4.6 2.3-8.8 7-12.7 4.7-3.9 11.1-5.9 19.3-5.9 3.3 0 7.1.4 11.4 1.1v-2.6c0-1.6-.7-3-2.1-4-1.4-1-4.1-1.5-8-1.5-3.2 0-7.4.6-12.5 1.9-1.9.5-3.4.7-4.5.7-1.5 0-2.7-.5-3.7-1.6-1-1-1.5-2.4-1.5-4 0-.9.2-1.7.5-2.4.4-.7.9-1.2 1.5-1.6.6-.4 2-.9 4-1.5 2.7-.7 5.4-1.3 8.2-1.8 2.8-.4 5.3-.7 7.6-.7 6.8 0 12 1.5 15.8 4.4 3.7 2.9 5.6 6.9 5.6 12v22.4h1.9c2.6 0 4.5.5 5.6 1.5s1.7 2.3 1.7 4c0 1.6-.6 2.9-1.7 3.9s-3 1.5-5.6 1.5h-12.8zm0-19.5c-4.4-.9-8.4-1.3-12.1-1.3-4.4 0-8.2 1.1-11.4 3.2-2 1.4-3 2.8-3 4.2 0 1 .5 1.9 1.4 2.5 1.8 1.2 4.2 1.8 7.3 1.8 2.6 0 5.6-.5 8.9-1.5 3.3-1 6.3-2.4 8.9-4.2v-4.7zM212.7 395.1c-1.8-1.1-3.6-1.9-5.6-2.5-1.9-.5-4-.8-6.1-.8-4.2 0-7.6.7-10 2.1-1.1.6-1.6 1.3-1.6 2 0 .8.7 1.6 2.2 2.4 1.1.6 3.7 1.1 7.6 1.6 7.2 1 12.3 2 15.1 3 3.7 1.3 6.6 3.3 8.6 5.8s3 5.3 3 8.2c0 3.9-1.7 7.2-5.2 9.8-4.9 3.8-11.3 5.7-19.2 5.7-3.2 0-6.1-.3-8.7-.8-2.7-.5-5.1-1.4-7.4-2.4-.5.5-1.1.8-1.7 1.1-.6.2-1.2.4-1.9.4-1.7 0-3.1-.6-4.1-1.7-1-1.1-1.5-3-1.5-5.6v-3.7c0-2.6.5-4.5 1.5-5.6 1-1.1 2.3-1.7 4-1.7 1.3 0 2.4.4 3.3 1.1.9.7 1.6 2 2.1 3.7 1.7 1.4 3.7 2.5 6 3.2 2.3.7 5 1.1 8.1 1.1 5 0 8.9-.8 11.6-2.3 1.3-.8 2-1.6 2-2.4 0-1.4-.9-2.6-2.8-3.5-1.9-.9-5.8-1.7-11.6-2.3-8.8-.9-14.6-2.7-17.5-5.3-2.9-2.6-4.4-5.8-4.4-9.6 0-3.9 1.6-7.1 4.9-9.7 4.5-3.5 10.3-5.3 17.5-5.3 2.5 0 4.9.2 7.3.7 2.3.5 4.5 1.2 6.7 2.2.7-.5 1.3-.9 1.9-1.1.6-.2 1.1-.4 1.6-.4 1.5 0 2.7.6 3.7 1.7s1.5 3 1.5 5.6v2.7c0 2.4-.3 4-.9 4.8-1.1 1.6-2.7 2.4-4.6 2.4-1.3 0-2.5-.4-3.5-1.2-1-1-1.6-2.1-1.9-3.4z"/><path class="st1" d="M257.2 410.7v19.9h-10.5c-1.1 0-1.8-.2-2.3-.6-.5-.4-.7-1-.7-1.6 0-.7.2-1.2.7-1.6.5-.4 1.2-.6 2.3-.6h6v-57.7h-6c-1.1 0-1.8-.2-2.3-.6-.5-.4-.7-1-.7-1.6 0-.6.2-1.2.7-1.6.5-.4 1.2-.6 2.3-.6h10.5V405l19-15.9h-2.3c-1.1 0-1.8-.2-2.3-.6-.5-.4-.7-1-.7-1.6 0-.7.2-1.2.7-1.6.5-.4 1.2-.6 2.3-.6h14.3c1.1 0 1.9.2 2.3.6.5.4.7 1 .7 1.6 0 .6-.2 1.2-.7 1.6-.5.4-1.2.6-2.3.6H283l-17.4 14.6 22.1 22.5h5.2c1.1 0 1.9.2 2.3.6.5.4.7.9.7 1.6 0 .6-.2 1.2-.7 1.6-.5.4-1.2.6-2.3.6h-14.5c-1.1 0-1.8-.2-2.3-.6-.5-.4-.7-1-.7-1.6 0-.7.2-1.2.7-1.6.5-.4 1.2-.6 2.3-.6h3.1l-19.2-19.7-5.1 4.2zM355.8 408.6h-45.5c.8 5.8 3.2 10.4 7.3 14 4.1 3.5 9.1 5.3 15.1 5.3 3.3 0 6.8-.5 10.5-1.6 3.6-1.1 6.6-2.6 8.9-4.4.7-.5 1.3-.8 1.8-.8.6 0 1.1.2 1.5.7s.6 1 .6 1.6c0 .6-.3 1.2-.9 1.8-1.7 1.8-4.7 3.4-9.1 5-4.3 1.5-8.8 2.3-13.4 2.3-7.7 0-14-2.5-19.2-7.5-5.1-5-7.7-11.1-7.7-18.2 0-6.5 2.4-12 7.2-16.7 4.8-4.6 10.7-7 17.8-7 7.3 0 13.3 2.4 18 7.1 4.8 4.7 7.1 10.9 7.1 18.4zm-4.6-4.5c-.9-4.9-3.2-8.9-7-12s-8.3-4.6-13.5-4.6c-5.2 0-9.7 1.5-13.4 4.6-3.8 3-6.1 7.1-7 12.1h40.9zM418.8 363.9v62.2h6c1.1 0 1.9.2 2.3.6.5.4.7.9.7 1.6 0 .6-.2 1.2-.7 1.6-.5.4-1.2.6-2.3.6h-10.5v-8.9c-5.2 7.1-11.7 10.6-19.7 10.6-4 0-7.9-1.1-11.6-3.2-3.7-2.1-6.6-5.2-8.8-9.2-2.1-4-3.2-8.1-3.2-12.3 0-4.3 1.1-8.4 3.2-12.3 2.1-4 5.1-7 8.8-9.2 3.7-2.2 7.6-3.2 11.7-3.2 7.8 0 14.4 3.5 19.7 10.6v-25.2h-6c-1.1 0-1.9-.2-2.3-.6-.5-.4-.7-1-.7-1.6 0-.6.2-1.2.7-1.6.5-.4 1.2-.6 2.3-.6h10.4zm-4.5 43.8c0-5.7-1.9-10.5-5.7-14.4-3.8-3.9-8.4-5.8-13.7-5.8-5.3 0-9.9 1.9-13.7 5.8-3.8 3.9-5.7 8.7-5.7 14.4 0 5.6 1.9 10.4 5.7 14.3s8.4 5.9 13.7 5.9c5.3 0 9.8-2 13.7-5.9s5.7-8.7 5.7-14.3zM464.5 372.9v53.3h15.3c1.1 0 1.8.2 2.3.6.5.4.7.9.7 1.6 0 .6-.2 1.2-.7 1.6-.5.4-1.2.6-2.3.6h-35.1c-1.1 0-1.8-.2-2.3-.6-.5-.4-.7-1-.7-1.6 0-.7.2-1.2.7-1.6.5-.4 1.2-.6 2.3-.6H460v-53.3h-15.3c-1.1 0-1.8-.2-2.3-.6-.5-.4-.7-.9-.7-1.6 0-.7.2-1.2.7-1.6.5-.4 1.2-.6 2.3-.6h35.1c1.1 0 1.8.2 2.3.6.5.4.7.9.7 1.6 0 .7-.2 1.2-.7 1.6-.5.4-1.2.6-2.3.6h-15.3zM513.1 384.6v6.8c3.1-3.2 5.9-5.3 8.5-6.5 2.5-1.2 5.4-1.8 8.5-1.8 3.4 0 6.5.7 9.3 2.2 2 1.1 3.8 2.8 5.4 5.3s2.4 5 2.4 7.6v28.1h3.8c1.1 0 1.8.2 2.3.6.5.4.7.9.7 1.6 0 .6-.2 1.2-.7 1.6-.5.4-1.2.6-2.3.6h-12c-1.1 0-1.9-.2-2.3-.6-.5-.4-.7-1-.7-1.6 0-.7.2-1.2.7-1.6.5-.4 1.2-.6 2.3-.6h3.7v-27.4c0-3.2-1.2-5.8-3.5-8s-5.4-3.3-9.2-3.3c-2.9 0-5.5.6-7.7 1.8-2.2 1.2-5.2 4.1-9.2 8.9v28h5c1.1 0 1.8.2 2.3.6.5.4.7.9.7 1.6 0 .6-.2 1.2-.7 1.6-.5.4-1.2.6-2.3.6h-14.6c-1.1 0-1.8-.2-2.3-.6-.5-.4-.7-1-.7-1.6 0-.7.2-1.2.7-1.6.5-.4 1.2-.6 2.3-.6h5v-37h-3.8c-1.1 0-1.8-.2-2.3-.6-.5-.4-.7-1-.7-1.6 0-.6.2-1.2.7-1.6.5-.4 1.2-.6 2.3-.6h8.4zM576.1 384.6v8.1c2.7-3.2 5.5-5.7 8.6-7.3 3-1.6 6.6-2.4 10.8-2.4 4.4 0 8.5 1 12.2 3.1 3.7 2.1 6.6 4.9 8.6 8.6 2 3.7 3.1 7.5 3.1 11.6 0 6.4-2.3 11.9-6.9 16.5-4.6 4.6-10.2 6.8-16.9 6.8-8 0-14.4-3.2-19.4-9.7v26.9H587c1.1 0 1.8.2 2.3.6.5.4.7.9.7 1.6 0 .6-.2 1.2-.7 1.6-.5.4-1.2.6-2.3.6h-21.3c-1.1 0-1.8-.2-2.3-.6-.5-.4-.7-.9-.7-1.6s.2-1.2.7-1.6c.5-.4 1.2-.6 2.3-.6h6v-57.6h-6c-1.1 0-1.8-.2-2.3-.6-.5-.4-.7-1-.7-1.6 0-.6.2-1.2.7-1.6.5-.4 1.2-.6 2.3-.6h10.4zm38.7 21.6c0-5.1-1.9-9.5-5.6-13.2-3.7-3.7-8.3-5.5-13.7-5.5-5.4 0-10 1.8-13.8 5.5-3.8 3.7-5.6 8.1-5.6 13.2s1.9 9.6 5.6 13.2c3.8 3.7 8.3 5.5 13.8 5.5 5.3 0 9.9-1.8 13.7-5.5s5.6-8 5.6-13.2zM673.5 430.6v-6.5c-6.1 5.5-12.7 8.3-19.8 8.3-4.4 0-7.7-1.2-9.9-3.6-2.9-3.1-4.4-6.8-4.4-10.9v-28.8h-6c-1.1 0-1.8-.2-2.3-.6-.5-.4-.7-1-.7-1.6 0-.6.2-1.2.7-1.6.5-.4 1.2-.6 2.3-.6h10.5V418c0 2.9.9 5.3 2.8 7.2 1.8 1.9 4.1 2.8 6.9 2.8 7.3 0 13.9-3.3 20-10v-28.8h-8.2c-1.1 0-1.8-.2-2.3-.6-.5-.4-.7-1-.7-1.6 0-.6.2-1.2.7-1.6.5-.4 1.2-.6 2.3-.6H678v41.6h3.8c1.1 0 1.8.2 2.3.6.5.4.7.9.7 1.6 0 .6-.2 1.2-.7 1.6-.5.4-1.2.6-2.3.6h-8.3zM714.4 384.6h24.2c1.1 0 1.8.2 2.3.6.5.4.7 1 .7 1.6 0 .6-.2 1.2-.7 1.6-.5.4-1.2.6-2.3.6h-24.2v29.7c0 2.6 1 4.7 3.1 6.5 2.1 1.7 5.1 2.6 9.1 2.6 3 0 6.3-.5 9.8-1.4 3.5-.9 6.2-1.9 8.2-3.1.7-.5 1.3-.7 1.8-.7.6 0 1.1.2 1.5.7.4.4.6 1 .6 1.6 0 .5-.2 1-.7 1.5-1.1 1.2-3.9 2.4-8.3 3.8s-8.6 2-12.6 2c-5.2 0-9.4-1.2-12.4-3.7s-4.6-5.7-4.6-9.9v-29.7h-8.2c-1.1 0-1.8-.2-2.3-.6-.5-.4-.7-1-.7-1.6 0-.6.2-1.2.7-1.6.5-.4 1.2-.6 2.3-.6h8.2v-13.2c0-1.1.2-1.8.6-2.3.4-.5 1-.7 1.6-.7.7 0 1.2.2 1.6.7.4.5.6 1.2.6 2.3v13.3z"/>
    <path style="fill:none;stroke:#000;stroke-width:3;stroke-miterlimit:10" d="M239.4 336.7V446"/>
    <g>
        <path d="M298.3 42.8h1.8c1.2 1.6 2.8 3 3.6 4.7 1.1 2.7 2.1 5.6 2.4 8.5 1.2 11.9 2.4 23.8 3.1 35.8 1.3 20 3.7 39.8 7.6 59.4.4 2.1.8 2.5 2.9 1.6 3.2-1.3 6.4-2.5 9.4-4.1 17.8-9.1 36.7-13.3 56.6-13.4 10.2-.1 20.4.1 30.6.5 10.1.5 20.1 1.7 29.6 5.3 7.2 2.8 14.3 6.1 21.4 9.2 2.6 1.1 5.3 2.2 8.1 3.3.3-.8.5-1.3.6-1.8 2.7-12.3 4.9-24.6 6-37.2 1.4-16.9 2.6-33.8 4-50.7.4-5.4 1-10.7 3.1-15.8.9-2.1 1.9-4.1 4-5.3h1.8c.9 1.2 1.9 2.3 2.5 3.5 1 2.1 1.8 4.4 2.5 6.6 3.9 12.8 6.3 26 8.7 39.2 4 22.6 6.9 45.4 9.1 68.2 1.8 19 2.5 38 2.5 57 .1 44.7-.9 89.3-5 133.8-.9 10-2.5 20-5.3 29.7-1.2 4-2.5 8-6 10.8h-1.4c-.3-.7-.7-1.4-.8-2.1-.6-6.4-1.2-12.8-1.7-19.1-1.2-14.3-3.1-28.4-6.5-42.3-1.1-4.4-.6-4-4.5-2.4-17 7.2-33.9 14.5-50.8 21.7-10.2 4.4-20.3 8.8-30.6 12.9-4.3 1.7-8.8 2.9-13.5 2.2-6.1-.9-11.8-3.1-17.4-5.6-17.3-7.5-34.4-15.3-51.7-22.8-7.4-3.2-15-6.1-22.5-9.2-1.3-.5-2-.3-2.2 1.1-.2 1-.5 2.1-.7 3.1-4.1 17.7-6 35.6-7.2 53.7-.2 2.9-.9 5.8-1.4 8.7h-1.4c-2.5-1.8-3.9-4.4-5-7.2-3.2-8.5-4.5-17.4-5.6-26.4-2.3-17.7-3.2-35.4-3.9-53.2-.7-17.7-1.3-35.3-1.6-53-.7-38.1-.3-76.2 4.6-114.1 2.7-20.8 5.5-41.6 9.8-62.2 1.9-9.1 4.5-18.1 7.1-27.1.4-1.8 2.1-3.6 3.3-5.5zm190.2 217.7c-.2-3-.2-5.7-.4-8.3-.3-3.9-1.8-4.9-5.5-3.6-2.7 1-5.3 2.1-7.8 3.4-18.4 9.4-36.8 18.8-55.2 28.3-2.4 1.2-4.6 2.7-6.7 4.3-3 2.3-3.9 5.6-3.3 9.2 1.1 6.8 7.2 12.8 14.4 14.3 5.6 1.1 11.2 1 16.8.3 7.8-.9 15.6-2.1 22.3-6.2 15.8-9.5 24.4-23.5 25.4-41.7zm-127 48.4c1.2-.1 3.7 0 6.1-.5 7.3-1.4 12.8-5.3 15.3-12.6 1.6-4.8.3-8.6-3.7-11.5-2-1.5-4.1-2.8-6.3-3.9-14.8-7.8-29.7-15.5-44.6-23.2-5.7-3-11.5-5.8-17.4-8.5-3.7-1.7-5.5-.5-6 3.5-1.1 9.5 0 18.6 4.2 27.4 5.6 11.8 13.9 20.7 26.4 25.2 7.9 2.8 16.2 3.9 26 4.1z"/></g><g id="d0xuFU.tif"><path d="M228.6 374.8c-7.1-10.3-21.4-13.3-31.6-6.8l-18 11.5c-4.9 3.1-8.3 8.1-9.3 13.8-.9 4.8-.1 9.7 2.2 14-1.6 2.4-2.6 5-3.1 7.7-1 5.8.3 11.9 3.7 16.6 7.2 10.3 21.4 13.3 31.6 6.8l18-11.5c4.9-3.1 8.3-8.1 9.3-13.8.9-4.8.1-9.7-2.2-14 1.6-2.4 2.6-5 3.1-7.7 1.2-5.8-.2-11.8-3.7-16.6" style="fill:#ef4623"/>
        <path d="M195.3 432.7c-5.8 1.5-11.9-.8-15.3-5.7-2.1-2.9-2.9-6.5-2.3-10 .1-.6.3-1.1.4-1.7l.3-1 .9.7c2.2 1.6 4.5 2.8 7.1 3.5l.7.2-.1.7c-.1.9.2 1.9.7 2.7 1 1.5 2.9 2.2 4.7 1.8.4-.1.8-.3 1.1-.5l18-11.5c.9-.6 1.5-1.4 1.7-2.5.2-1-.1-2.2-.7-3-1-1.5-2.9-2.2-4.7-1.7-.4.1-.8.3-1.1.5l-6.9 4.4c-1.1.7-2.4 1.2-3.7 1.6-5.8 1.5-11.9-.8-15.3-5.7-2-2.9-2.9-6.5-2.2-10 .6-3.4 2.7-6.5 5.6-8.3l18-11.5c1.1-.7 2.4-1.2 3.7-1.6 5.8-1.5 11.9.8 15.3 5.7 2.1 2.9 2.9 6.5 2.3 10-.1.6-.3 1.1-.5 1.7l-.3 1-.9-.7c-2.2-1.6-4.5-2.8-7.1-3.5l-.7-.2.1-.7c.1-.9-.2-1.9-.7-2.7-1-1.5-2.9-2.2-4.7-1.7-.4.1-.8.3-1.1.5l-18 11.5c-.9.6-1.5 1.4-1.7 2.5-.2 1 .1 2.2.7 3 1 1.5 2.9 2.2 4.7 1.7.4-.1.8-.3 1.1-.5l6.9-4.4c1.1-.7 2.4-1.2 3.7-1.6 5.8-1.5 11.9.8 15.3 5.7 2.1 2.9 2.9 6.5 2.3 10-.6 3.4-2.7 6.5-5.6 8.3L199 431c-1.1.8-2.4 1.3-3.7 1.7" style="fill:#fff"/>
    </g>
</svg>
